<?xml version="1.0" standalone="no"?><!DOCTYPE svg PUBLIC "-//W3C//DTD SVG 1.1//EN" "http://www.w3.org/Graphics/SVG/1.1/DTD/svg11.dtd"><svg t="1542080624458" class="icon" style="" viewBox="0 0 1024 1024" version="1.1" xmlns="http://www.w3.org/2000/svg" p-id="1670" xmlns:xlink="http://www.w3.org/1999/xlink" width="32" height="32"><defs><style type="text/css"></style></defs><path d="M438.884 194.975h-145.85V25.134S292.272 0 267.9 0h-23.229s-24.753 1.142-24.753 25.134v169.461H74.448s-25.514-0.381-25.514 25.134v584.544s5.331 24.372 24.753 24.372h146.231v170.603s0.762 24.753 24.753 24.753h23.991s24.372-0.762 24.372-24.753V829.025l145.85-0.381s24.372 0 24.372-24.372V219.728s0-24.753-24.372-24.753zM950.694 292.463H829.215V122.621s-0.762-25.134-25.134-25.134h-23.229s-24.753 1.142-24.753 25.134v169.461H635.002s-25.514-0.381-25.514 25.134v292.082s5.331 24.372 24.753 24.372H756.1v121.859s0.762 24.753 24.753 24.753h23.991s24.372-0.762 24.372-24.753V634.05l121.479-0.381s24.372 0 24.372-24.372V317.215c-0.001 0-0.001-24.752-24.373-24.752z" p-id="1671" fill="#ffffff"></path></svg>