<?xml version="1.0" encoding="utf-8"?>
<!--Generator: Adobe Illustrator 23.0.1, SVG Export Plug-In . SVG Version: 6.00 Build 0)-->
<svg xmlns="http://www.w3.org/2000/svg" xmlns:xlink="http://www.w3.org/1999/xlink" id="图层_1" x="0px" y="0px" style="enable-background:new 0 0 595.28 841.89" version="1.1" viewBox="0 0 841.89 841.89" xml:space="preserve">
    <style type="text/css">
        .st0{fill:#eee;} svg{ position: absolute; } .ball{offset-distance: 0%; offset-path: path(&apos;M488.11,487.76c0.24,19.19-1.48,37.57-5.17,54.57c-4.18,19.34-10.82,36.54-19.43,51.12c-4.92,8.56-10.82,15.25-17.96,19.85l0,0c-7.38,4.95-16.24,8.12-25.09,9.2c-18.94,2.02-37.4,1.28-54.87-2.21c-17.22-3.47-34.44-9.72-51.42-18.62c-15.01-8.07-29.52-18.23-44.53-31.07l-2.46-2.02c-16.24-13.85-59.54-50.68-55.6-81.16c0.74-14.54,7.63-29.85,20.66-45.54c10.33-12.23,23.13-24.06,39.86-36.19c14.52-10.48,30.26-20.13,46.5-28.64c16.98-8.71,33.95-15.18,50.93-19.24c11.81-2.88,22.88-4.3,32.97-4.3c6.89,0,13.53,0.66,19.93,1.97c17.22,3.49,32.72,13.66,42.56,27.88c9.1,13.28,15.5,30.04,18.7,49.75C486.64,450.9,488.11,469.28,488.11,487.76L488.11,487.76z&apos;); animation: path 9s linear infinite,run 3s linear infinite; } @keyframes path { 0% { offset-path: path(&apos;M488.11,487.76c0.24,19.19-1.48,37.57-5.17,54.57c-4.18,19.34-10.82,36.54-19.43,51.12c-4.92,8.56-10.82,15.25-17.96,19.85l0,0c-7.38,4.95-16.24,8.12-25.09,9.2c-18.94,2.02-37.4,1.28-54.87-2.21c-17.22-3.47-34.44-9.72-51.42-18.62c-15.01-8.07-29.52-18.23-44.53-31.07l-2.46-2.02c-16.24-13.85-59.54-50.68-55.6-81.16c0.74-14.54,7.63-29.85,20.66-45.54c10.33-12.23,23.13-24.06,39.86-36.19c14.52-10.48,30.26-20.13,46.5-28.64c16.98-8.71,33.95-15.18,50.93-19.24c11.81-2.88,22.88-4.3,32.97-4.3c6.89,0,13.53,0.66,19.93,1.97c17.22,3.49,32.72,13.66,42.56,27.88c9.1,13.28,15.5,30.04,18.7,49.75C486.64,450.9,488.11,469.28,488.11,487.76L488.11,487.76z&apos;); } 33%{ offset-path: path(&apos;M523.3,423.3c-1.72,32.72-5.9,61.39-12.79,87.66c-4.18,14.81-9.1,28.86-14.76,41.83c-31.98,69.16-95.21,95.8-187.48,79.24c-14.27-3.2-28.54-7.72-42.32-13.48c-13.78-5.66-27.06-12.25-39.86-19.68c-23.37-13.38-46.75-30.48-71.59-52.26c-10.33-9.08-20.67-19.04-31.98-30.56c-10.58-10.75-20.42-21.75-29.77-32.72l-2.46-3.02c-3.69-4.58-7.63-9.27-10.58-13.97c-3.69-5.12-7.14-11-10.09-17.98c-5.66-13.36-7.38-26.62-4.92-38.38c2.46-12.1,8.86-24.23,18.21-35.08c8.61-9.69,19.44-18.97,32.48-27.63c39.36-25.83,54.13-34.05,69.87-42.76c13.04-7.18,26.57-14.64,54.13-31.98c15.5-9.72,30.01-19.44,45.02-29.77c15.25-10.41,31-21.16,48.47-32.11c9.59-5.95,18.45-10.36,27.31-13.46c7.87-2.75,15.5-4.6,22.88-5.51c3.69-0.47,7.63-0.69,11.32-0.69c10.58,0,20.91,1.82,30.26,5.34c12.55,4.67,24.36,12.4,35.18,22.95c10.09,9.55,18.94,21.04,26.57,34.2c13.78,24.04,23.87,51.64,30.02,82.05c3.2,14.84,5.41,29.53,6.4,43.65C524.03,396.01,524.28,410.04,523.3,423.3L523.3,423.3z&apos;); } 67% { offset-path: path(&apos;M365.1,628.29c-21.9-1.03-45.27-6.42-69.63-15.99c-20.67-8.12-41.58-19.83-62-34.86c-17.96-13.24-35.43-28.64-53.63-47.09c-18.7-18.85-30.51-38.23-35.18-57.75c-11.81-47.8,13.04-73.24,36.17-86.23c3.2-2.24,14.52-8.29,22.63-12.74c3.69-2.02,6.89-3.74,8.61-4.67c21.9-12.57,42.56-26.18,61.75-39c3.94-2.66,13.28-9.2,23.37-16.09c15.5-10.8,33.21-23.05,36.17-24.87c10.58-6.13,21.16-10.78,31.98-13.75c10.09-2.83,20.42-4.26,30.51-4.26c1.48,0,2.46,0.02,3.69,0.07c22.63,0.47,44.78,10.83,60.52,28.39c14.27,15.4,24.85,35.6,32.72,61.78c22.14,65.08,6.64,167.62-9.1,201.74c-18.7,39.76-39.12,54.5-47.49,56.74C408.89,626.6,386.01,629.37,365.1,628.29L365.1,628.29z&apos;); } } @keyframes run { from { offset-distance: 0%; } to { offset-distance: 100%; } }
    </style>
    <path d="M488.11,487.76c0.24,19.19-1.48,37.57-5.17,54.57c-4.18,19.34-10.82,36.54-19.43,51.12
	c-4.92,8.56-10.82,15.25-17.96,19.85l0,0c-7.38,4.95-16.24,8.12-25.09,9.2c-18.94,2.02-37.4,1.28-54.87-2.21
	c-17.22-3.47-34.44-9.72-51.42-18.62c-15.01-8.07-29.52-18.23-44.53-31.07l-2.46-2.02c-16.24-13.85-59.54-50.68-55.6-81.16
	c0.74-14.54,7.63-29.85,20.66-45.54c10.33-12.23,23.13-24.06,39.86-36.19c14.52-10.48,30.26-20.13,46.5-28.64
	c16.98-8.71,33.95-15.18,50.93-19.24c11.81-2.88,22.88-4.3,32.97-4.3c6.89,0,13.53,0.66,19.93,1.97
	c17.22,3.49,32.72,13.66,42.56,27.88c9.1,13.28,15.5,30.04,18.7,49.75C486.64,450.9,488.11,469.28,488.11,487.76L488.11,487.76z
	 M494.02,431.91l-0.25-1.28c-3.44-31.24-17.47-56.78-40.1-73.93c-7.87-5.44-16.98-9.4-27.06-11.71
	c-17.22-3.86-35.92-3.39-57.82,1.53c-17.71,4.03-35.67,10.6-53.64,19.53c-17.22,8.59-33.71,18.33-48.96,28.96
	c-17.96,12.79-31.74,24.87-43.05,38.04c-7.13,8.34-12.55,16.44-16.48,24.73c-9.84,20-15.25,50.95,15.01,84.68l0.25,0.27
	c14.02,15.28,27.55,28,41.58,38.85c15.75,12.11,31.98,22.12,48.71,29.77c26.32,12.28,55.11,18.55,84.14,18.55
	c8.86,0,17.72-0.57,26.57-1.7c9.59-1.2,18.7-4.67,26.57-10.01c7.63-4.99,14.27-12.32,19.19-21.11
	c9.35-15.25,16.48-32.87,21.16-52.38C498.2,510.98,499.43,473.05,494.02,431.91z" class="st0"/>
    <path d="M523.3,423.3c-1.72,32.72-5.9,61.39-12.79,87.66c-4.18,14.81-9.1,28.86-14.76,41.83
	c-31.98,69.16-95.21,95.8-187.48,79.24c-14.27-3.2-28.54-7.72-42.32-13.48c-13.78-5.66-27.06-12.25-39.86-19.68
	c-23.37-13.38-46.75-30.48-71.59-52.26c-10.33-9.08-20.67-19.04-31.98-30.56c-10.58-10.75-20.42-21.75-29.77-32.72l-2.46-3.02
	c-3.69-4.58-7.63-9.27-10.58-13.97c-3.69-5.12-7.14-11-10.09-17.98c-5.66-13.36-7.38-26.62-4.92-38.38
	c2.46-12.1,8.86-24.23,18.21-35.08c8.61-9.69,19.44-18.97,32.48-27.63c39.36-25.83,54.13-34.05,69.87-42.76
	c13.04-7.18,26.57-14.64,54.13-31.98c15.5-9.72,30.01-19.44,45.02-29.77c15.25-10.41,31-21.16,48.47-32.11
	c9.59-5.95,18.45-10.36,27.31-13.46c7.87-2.75,15.5-4.6,22.88-5.51c3.69-0.47,7.63-0.69,11.32-0.69c10.58,0,20.91,1.82,30.26,5.34
	c12.55,4.67,24.36,12.4,35.18,22.95c10.09,9.55,18.94,21.04,26.57,34.2c13.78,24.04,23.87,51.64,30.02,82.05
	c3.2,14.84,5.41,29.53,6.4,43.65C524.03,396.01,524.28,410.04,523.3,423.3L523.3,423.3z M533.38,377.02
	c-0.74-14.69-2.46-30.02-5.41-45.54c-5.9-31.98-16.24-61.14-30.26-86.7c-8.12-14.32-17.47-26.92-27.8-37.45
	c-12.05-12.01-25.34-20.91-39.36-26.42c-14.52-5.76-31-7.85-47.49-6.03c-14.52,1.58-29.28,6.13-45.27,13.95
	c-13.78,7.01-29.28,17.35-48.71,30.41c-14.52,9.77-31,20.81-51.42,33.58c-27.06,17.02-62.74,37.59-91.28,54.13
	c-19.19,11.22-34.44,20.05-39.86,23.57c-74.55,45.39-65.44,96.69-53.14,123.21l0.49,1.08c7.14,16.41,18.45,30.56,26.33,39.76
	c42.56,49.16,90.29,87.78,141.96,114.75c13.53,7.11,27.55,13.28,42.07,18.4c6.89,2.58,14.02,4.65,20.91,6.67l0.98,0.25
	c3.44,1.03,21.41,4.82,22.14,4.99l0,0c14.27,2.78,29.28,4.13,43.79,4.13c15.99,0,31.74-1.57,46.99-4.7
	c30.26-6.13,58.06-22.22,77.99-45.27c9.59-10.73,17.71-23.69,24.6-38.5c6.15-13.21,11.32-27.61,15.75-42.79
	c8.12-27.24,13.04-56.59,15.75-89.7C534.37,409.23,534.37,394.22,533.38,377.02z" class="st0"/>
    <path d="M365.1,628.29c-21.9-1.03-45.27-6.42-69.63-15.99c-20.67-8.12-41.58-19.83-62-34.86
	c-17.96-13.24-35.43-28.64-53.63-47.09c-18.7-18.85-30.51-38.23-35.18-57.75c-11.81-47.8,13.04-73.24,36.17-86.23
	c3.2-2.24,14.52-8.29,22.63-12.74c3.69-2.02,6.89-3.74,8.61-4.67c21.9-12.57,42.56-26.18,61.75-39c3.94-2.66,13.28-9.2,23.37-16.09
	c15.5-10.8,33.21-23.05,36.17-24.87c10.58-6.13,21.16-10.78,31.98-13.75c10.09-2.83,20.42-4.26,30.51-4.26
	c1.48,0,2.46,0.02,3.69,0.07c22.63,0.47,44.78,10.83,60.52,28.39c14.27,15.4,24.85,35.6,32.72,61.78
	c22.14,65.08,6.64,167.62-9.1,201.74c-18.7,39.76-39.12,54.5-47.49,56.74C408.89,626.6,386.01,629.37,365.1,628.29L365.1,628.29z
	 M469.91,288.89c-8.61-9.87-18.94-17.99-30.26-23.55c-10.82-5.56-23.62-8.86-36.9-9.52c-24.6-1.13-49.45,5.39-72.58,18.94
	c-3.2,1.94-21.65,14.62-37.89,25.81c-9.6,6.67-18.95,12.99-22.64,15.52c-18.2,12.08-39.86,26.03-61.75,38.26
	c-1.48,0.89-4.67,2.51-8.36,4.48c-8.37,4.58-20.42,10.9-24.11,13.38c-25.09,14.22-40.6,33.04-45.76,55.95
	c-9.59,40.65,15.5,79.37,18.21,83.63c6.15,9.86,14.02,19.58,24.11,29.77c19.44,19.39,37.89,35.08,56.83,48.03
	c21.4,14.64,43.79,25.96,66.18,33.61c23.13,8.83,49.7,13.36,75.78,13.36c15.5,0,31-1.62,45.51-4.87
	c15.99-3.64,29.77-10.01,40.84-19.02c15.25-12.18,26.82-29.84,38.87-59.05C508.78,522.57,544.45,377.88,469.91,288.89z" class="st0"/>
    <circle class="ball" r="10" cx="10" cy="10" fill="#ffde3b" />
</svg>
